<?xml version="1.0" encoding="UTF-8"?>
<!DOCTYPE svg PUBLIC "-//W3C//DTD SVG 1.1//EN" "http://www.w3.org/Graphics/SVG/1.1/DTD/svg11.dtd">
<svg xmlns="http://www.w3.org/2000/svg" version="1.1" width="161px" height="91px" style="shape-rendering:geometricPrecision; text-rendering:geometricPrecision; image-rendering:optimizeQuality; fill-rule:evenodd; clip-rule:evenodd" xmlns:xlink="http://www.w3.org/1999/xlink">
<g><path style="opacity:1" fill="#fdfefe" d="M -0.5,-0.5 C 53.1667,-0.5 106.833,-0.5 160.5,-0.5C 160.5,29.8333 160.5,60.1667 160.5,90.5C 106.833,90.5 53.1667,90.5 -0.5,90.5C -0.5,60.1667 -0.5,29.8333 -0.5,-0.5 Z"/></g>
<g><path style="opacity:1" fill="#79d253" d="M 34.5,42.5 C 31.5885,40.1977 29.2552,37.3644 27.5,34C 25.3496,32.5886 23.0163,31.7553 20.5,31.5C 29.3242,28.5298 36.3242,23.0298 41.5,15C 49.7884,10.9855 55.9551,13.1522 60,21.5C 60.6453,32.8556 55.1453,38.3556 43.5,38C 40.4469,39.5266 37.4469,41.0266 34.5,42.5 Z"/></g>
<g><path style="opacity:1" fill="#f9fbf5" d="M 45.5,16.5 C 55.1341,17.1072 58.1341,21.7739 54.5,30.5C 49.6721,34.7018 45.1721,34.3684 41,29.5C 39.3794,23.9227 40.8794,19.5894 45.5,16.5 Z"/></g>
<g><path style="opacity:1" fill="#f2b25f" d="M 46.5,20.5 C 52.704,20.3137 54.0374,22.8137 50.5,28C 44.4034,28.1475 43.0701,25.6475 46.5,20.5 Z"/></g>
<g><path style="opacity:1" fill="#5f6770" d="M 122.5,30.5 C 123.5,30.5 124.5,30.5 125.5,30.5C 125.5,31.8333 125.5,33.1667 125.5,34.5C 124.5,34.5 123.5,34.5 122.5,34.5C 122.5,33.1667 122.5,31.8333 122.5,30.5 Z"/></g>
<g><path style="opacity:1" fill="#4d9491" d="M 20.5,31.5 C 23.0163,31.7553 25.3496,32.5886 27.5,34C 29.2552,37.3644 31.5885,40.1977 34.5,42.5C 34.5,42.8333 34.5,43.1667 34.5,43.5C 31.475,48.525 27.475,52.525 22.5,55.5C 10.651,55.7974 5.81767,50.1308 8,38.5C 10.4866,33.1733 14.6532,30.8399 20.5,31.5 Z"/></g>
<g><path style="opacity:1" fill="#90959b" d="M 112.5,37.5 C 111.716,36.2592 111.049,34.2592 110.5,31.5C 109.167,39.1667 109.167,46.8333 110.5,54.5C 111.167,49.6833 111.834,45.0166 112.5,40.5C 112.5,45.5 112.5,50.5 112.5,55.5C 111.167,55.5 109.833,55.5 108.5,55.5C 108.5,47.1667 108.5,38.8333 108.5,30.5C 109.833,30.5 111.167,30.5 112.5,30.5C 112.5,32.8333 112.5,35.1667 112.5,37.5 Z"/></g>
<g><path style="opacity:1" fill="#656d76" d="M 60.5,32.5 C 66.3335,31.3373 69.0002,33.6706 68.5,39.5C 67.5,39.5 66.5,39.5 65.5,39.5C 65.5,38.1667 65.5,36.8333 65.5,35.5C 64.1667,35.5 62.8333,35.5 61.5,35.5C 61.8464,39.3591 63.6798,42.3591 67,44.5C 70.4775,48.2265 70.3109,51.7265 66.5,55C 60.496,56.1646 57.8293,53.6646 58.5,47.5C 59.5,47.5 60.5,47.5 61.5,47.5C 60.7564,50.9496 62.0897,52.6162 65.5,52.5C 65.6567,51.1266 65.49,49.7932 65,48.5C 62.6078,45.772 60.6078,42.772 59,39.5C 58.1668,36.829 58.6668,34.4957 60.5,32.5 Z"/></g>
<g><path style="opacity:1" fill="#5c646e" d="M 130.5,32.5 C 132.256,33.5521 132.923,35.2188 132.5,37.5C 136.5,38.1667 136.5,38.8333 132.5,39.5C 132.5,43.8333 132.5,48.1667 132.5,52.5C 136.302,52.8949 136.469,53.8949 133,55.5C 131.739,55.2409 130.739,54.5742 130,53.5C 129.783,48.4473 129.283,43.4473 128.5,38.5C 129.372,36.5504 130.039,34.5504 130.5,32.5 Z"/></g>
<g><path style="opacity:1" fill="#f9faf8" d="M 15.5,35.5 C 26.6299,35.1061 29.6299,39.7728 24.5,49.5C 14.8876,53.0578 10.7209,49.7245 12,39.5C 12.6897,37.6498 13.8564,36.3164 15.5,35.5 Z"/></g>
<g><path style="opacity:1" fill="#959aa1" d="M 86.5,37.5 C 85.1858,39.9151 84.5191,42.7485 84.5,46C 84.8333,48.8333 85.1667,51.6667 85.5,54.5C 86.1669,49.6833 86.8335,45.0166 87.5,40.5C 87.5,45.5 87.5,50.5 87.5,55.5C 86.1667,55.5 84.8333,55.5 83.5,55.5C 83.5,49.1667 83.5,42.8333 83.5,36.5C 84.791,36.2627 85.791,36.596 86.5,37.5 Z"/></g>
<g><path style="opacity:1" fill="#5b636d" d="M 93.5,39.5 C 93.5,44.5 93.5,49.5 93.5,54.5C 92.5,54.5 91.5,54.5 90.5,54.5C 90.5,49.5 90.5,44.5 90.5,39.5C 89.209,39.2627 88.209,39.596 87.5,40.5C 86.8335,45.0166 86.1669,49.6833 85.5,54.5C 85.1667,51.6667 84.8333,48.8333 84.5,46C 84.5191,42.7485 85.1858,39.9151 86.5,37.5C 87.0778,38.547 87.7445,38.3803 88.5,37C 91.2617,35.9231 92.9283,36.7564 93.5,39.5 Z"/></g>
<g><path style="opacity:1" fill="#697079" d="M 99.5,36.5 C 104.51,35.9102 106.176,37.9102 104.5,42.5C 103.614,41.675 103.281,40.675 103.5,39.5C 102.5,39.5 101.5,39.5 100.5,39.5C 100.5,43.8333 100.5,48.1667 100.5,52.5C 101.5,52.5 102.5,52.5 103.5,52.5C 103.281,51.325 103.614,50.325 104.5,49.5C 105.883,53.9539 104.217,55.7873 99.5,55C 95.5283,48.8057 95.5283,42.639 99.5,36.5 Z"/></g>
<g><path style="opacity:1" fill="#5a626c" d="M 112.5,37.5 C 114.708,35.8571 116.541,36.1904 118,38.5C 118.499,43.8229 118.666,49.1563 118.5,54.5C 117.5,54.5 116.5,54.5 115.5,54.5C 115.5,49.5 115.5,44.5 115.5,39.5C 114.209,39.2627 113.209,39.596 112.5,40.5C 111.834,45.0166 111.167,49.6833 110.5,54.5C 109.167,46.8333 109.167,39.1667 110.5,31.5C 111.049,34.2592 111.716,36.2592 112.5,37.5 Z"/></g>
<g><path style="opacity:1" fill="#565f68" d="M 122.5,37.5 C 123.5,37.5 124.5,37.5 125.5,37.5C 125.5,43.1667 125.5,48.8333 125.5,54.5C 124.5,54.5 123.5,54.5 122.5,54.5C 122.5,48.8333 122.5,43.1667 122.5,37.5 Z"/></g>
<g><path style="opacity:1" fill="#f2b260" d="M 16.5,39.5 C 23.004,39.1377 24.6707,41.6377 21.5,47C 15.7853,47.401 14.1187,44.901 16.5,39.5 Z"/></g>
<g><path style="opacity:1" fill="#c2c4c8" d="M 93.5,39.5 C 94.4881,44.6405 94.8214,49.9738 94.5,55.5C 92.901,55.7678 91.5676,55.4345 90.5,54.5C 91.5,54.5 92.5,54.5 93.5,54.5C 93.5,49.5 93.5,44.5 93.5,39.5 Z"/></g>
<g><path style="opacity:1" fill="#6395be" d="M 34.5,43.5 C 39.3139,47.7185 44.9805,49.8852 51.5,50C 59.504,53.9537 61.6707,60.1203 58,68.5C 53.8604,73.2114 48.6938,74.7114 42.5,73C 38.4175,68.2261 34.0842,63.5594 29.5,59C 27.0748,57.7874 24.7415,56.6207 22.5,55.5C 27.475,52.525 31.475,48.525 34.5,43.5 Z"/></g>
<g><path style="opacity:1" fill="#686f78" d="M 73.5,36.5 C 76.0444,36.1043 78.2111,36.771 80,38.5C 80.4994,44.1569 80.6661,49.8236 80.5,55.5C 78.4029,54.6469 76.4029,54.6469 74.5,55.5C 70.8529,54.5139 69.6862,52.1806 71,48.5C 72.5707,46.0771 74.7374,44.7438 77.5,44.5C 77.5,42.8333 77.5,41.1667 77.5,39.5C 75.0876,39.244 73.4209,40.244 72.5,42.5C 71.2302,40.2432 71.5636,38.2432 73.5,36.5 Z"/></g>
<g><path style="opacity:1" fill="#eaebec" d="M 75.5,46.5 C 77.3079,47.9179 77.9746,49.9179 77.5,52.5C 76.5,52.5 75.5,52.5 74.5,52.5C 74.3253,50.3792 74.6586,48.3792 75.5,46.5 Z"/></g>
<g><path style="opacity:1" fill="#f9f9fc" d="M 44.5,53.5 C 55.1172,53.6159 58.1172,58.4493 53.5,68C 43.9721,71.7941 39.4721,68.6274 40,58.5C 41.3657,56.6383 42.8657,54.9717 44.5,53.5 Z"/></g>
<g><path style="opacity:1" fill="#d698f0" d="M 45.5,57.5 C 50.9836,57.4809 52.6503,59.9809 50.5,65C 43.745,65.7558 42.0783,63.2558 45.5,57.5 Z"/></g>
</svg>
